name Walk10.mot
datacolumns 19
datarows 20
range 2.19000000 2.20900000
endheader

                time	   L_ground_force_vx	   L_ground_force_vy	   L_ground_force_vz	   L_ground_force_px	   L_ground_force_py	   L_ground_force_pz	   R_ground_force_vx	   R_ground_force_vy	   R_ground_force_vz	   R_ground_force_px	   R_ground_force_py	   R_ground_force_pz	   L_ground_torque_x	   L_ground_torque_y	   L_ground_torque_z	   R_ground_torque_x	   R_ground_torque_y	   R_ground_torque_z	
          2.19000000	          0.00000000	          0.00000000	          0.00000000	          0.00000000	          0.00000000	          0.00000000	          0.00000000	          0.00000000	          0.00000000	          0.00000000	          0.00000000	          0.00000000	          0.00000000	          0.00000000	          0.00000000	          0.00000000	          0.00000000	          0.00000000	
          2.19100000	          0.00000000	          0.00000000	          0.00000000	          0.00000000	          0.00000000	          0.00000000	          0.00000000	          0.00000000	          0.00000000	          0.00000000	          0.00000000	          0.00000000	          0.00000000	          0.00000000	          0.00000000	          0.00000000	          0.00000000	          0.00000000	
          2.19200000	          0.00000000	          0.00000000	          0.00000000	          0.00000000	          0.00000000	          0.00000000	          0.00000000	          0.00000000	          0.00000000	          0.00000000	          0.00000000	          0.00000000	          0.00000000	          0.00000000	          0.00000000	          0.00000000	          0.00000000	          0.00000000	
          2.19300000	          0.00000000	          0.00000000	          0.00000000	          0.00000000	          0.00000000	          0.00000000	          0.00000000	          0.00000000	          0.00000000	          0.00000000	          0.00000000	          0.00000000	          0.00000000	          0.00000000	          0.00000000	          0.00000000	          0.00000000	          0.00000000	
          2.19400000	          0.00000000	          0.00000000	          0.00000000	          0.00000000	          0.00000000	          0.00000000	          0.00000000	          0.00000000	          0.00000000	          0.00000000	          0.00000000	          0.00000000	          0.00000000	          0.00000000	          0.00000000	          0.00000000	          0.00000000	          0.00000000	
          2.19500000	          0.00000000	          0.00000000	          0.00000000	          0.00000000	          0.00000000	          0.00000000	          0.00000000	          0.00000000	          0.00000000	          0.00000000	          0.00000000	          0.00000000	          0.00000000	          0.00000000	          0.00000000	          0.00000000	          0.00000000	          0.00000000	
          2.19600000	          4.75733565	         13.55689017	          1.03843719	         -0.45597009	          0.00000000	         -0.08725584	          0.00000000	          0.00000000	          0.00000000	          0.00000000	          0.00000000	          0.00000000	          0.00000000	         -0.07851777	          0.00000000	          0.00000000	          0.00000000	          0.00000000	
          2.19700000	          7.11880308	         21.04001269	          1.51162472	         -0.45432991	          0.00000000	         -0.08378686	          0.00000000	          0.00000000	          0.00000000	          0.00000000	          0.00000000	          0.00000000	          0.00000000	         -0.11021509	          0.00000000	          0.00000000	          0.00000000	          0.00000000	
          2.19800000	          9.57071818	         29.51221228	          1.97199605	         -0.45292716	          0.00000000	         -0.08173871	          0.00000000	          0.00000000	          0.00000000	          0.00000000	          0.00000000	          0.00000000	          0.00000000	         -0.13019882	          0.00000000	          0.00000000	          0.00000000	          0.00000000	
          2.19900000	         12.04692734	         39.10251303	          2.41115519	         -0.45167969	          0.00000000	         -0.08093035	          0.00000000	          0.00000000	          0.00000000	          0.00000000	          0.00000000	          0.00000000	          0.00000000	         -0.13314378	          0.00000000	          0.00000000	          0.00000000	          0.00000000	
          2.20000000	         14.59080180	         50.20126742	          2.85182077	         -0.45044068	          0.00000000	         -0.08101071	          0.00000000	          0.00000000	          0.00000000	          0.00000000	          0.00000000	          0.00000000	          0.00000000	         -0.12133172	          0.00000000	          0.00000000	          0.00000000	          0.00000000	
          2.20100000	         17.28962146	         63.13480341	          3.32129574	         -0.44910534	          0.00000000	         -0.08157171	          0.00000000	          0.00000000	          0.00000000	          0.00000000	          0.00000000	          0.00000000	          0.00000000	         -0.10258410	          0.00000000	          0.00000000	          0.00000000	          0.00000000	
          2.20200000	         20.20902041	         77.89341005	          3.83234050	         -0.44773568	          0.00000000	         -0.08223249	          0.00000000	          0.00000000	          0.00000000	          0.00000000	          0.00000000	          0.00000000	          0.00000000	         -0.08666817	          0.00000000	          0.00000000	          0.00000000	          0.00000000	
          2.20300000	         23.33782937	         93.98541500	          4.36652664	         -0.44647873	          0.00000000	         -0.08268812	          0.00000000	          0.00000000	          0.00000000	          0.00000000	          0.00000000	          0.00000000	          0.00000000	         -0.08138065	          0.00000000	          0.00000000	          0.00000000	          0.00000000	
          2.20400000	         26.56425788	        110.46853625	          4.86198000	         -0.44542270	          0.00000000	         -0.08278455	          0.00000000	          0.00000000	          0.00000000	          0.00000000	          0.00000000	          0.00000000	          0.00000000	         -0.08920256	          0.00000000	          0.00000000	          0.00000000	          0.00000000	
          2.20500000	         29.68521978	        126.14136587	          5.22285086	         -0.44456781	          0.00000000	         -0.08251481	          0.00000000	          0.00000000	          0.00000000	          0.00000000	          0.00000000	          0.00000000	          0.00000000	         -0.10740143	          0.00000000	          0.00000000	          0.00000000	          0.00000000	
          2.20600000	         32.44684113	        139.81683174	          5.35296376	         -0.44390124	          0.00000000	         -0.08195464	          0.00000000	          0.00000000	          0.00000000	          0.00000000	          0.00000000	          0.00000000	          0.00000000	         -0.13081982	          0.00000000	          0.00000000	          0.00000000	          0.00000000	
          2.20700000	         34.60850066	        150.60483880	          5.19304841	         -0.44343990	          0.00000000	         -0.08123597	          0.00000000	          0.00000000	          0.00000000	          0.00000000	          0.00000000	          0.00000000	          0.00000000	         -0.15346248	          0.00000000	          0.00000000	          0.00000000	          0.00000000	
          2.20800000	         36.00243333	        158.13318098	          4.73755481	         -0.44317118	          0.00000000	         -0.08053301	          0.00000000	          0.00000000	          0.00000000	          0.00000000	          0.00000000	          0.00000000	          0.00000000	         -0.16885944	          0.00000000	          0.00000000	          0.00000000	          0.00000000	
          2.20900000	         36.55943524	        162.59672515	          4.02701604	         -0.44299964	          0.00000000	         -0.08000058	          0.00000000	          0.00000000	          0.00000000	          0.00000000	          0.00000000	          0.00000000	          0.00000000	         -0.17282934	          0.00000000	          0.00000000	          0.00000000	          0.00000000	
